HIERARCHY
ROOT Hips
{
    OFFSET 0.000000 0.000000 0.000000
    CHANNELS 6 Xposition Yposition Zposition Zrotation Xrotation Yrotation
    JOINT Spine
    {
        OFFSET -0.000000 7.305679 0.000000
        CHANNELS 3 Zrotation Xrotation Yrotation
        JOINT Spine1
        {
            OFFSET -0.000000 20.356625 0.000000
            CHANNELS 3 Zrotation Xrotation Yrotation
            JOINT Neck
            {
                OFFSET -0.000000 22.138498 0.000000
                CHANNELS 3 Zrotation Xrotation Yrotation
                JOINT Head
                {
                    OFFSET -0.000000 13.809516 1.781873
                    CHANNELS 3 Zrotation Xrotation Yrotation
                    End Site
                    {
                        OFFSET -0.000000 17.818729 0.000000
                    }
                }
            }
            JOINT LeftShoulder
            {
                OFFSET 3.599131 17.989975 0.023592
                CHANNELS 3 Zrotation Xrotation Yrotation
                JOINT LeftArm
                {
                    OFFSET 12.560995 0.000000 0.000000
                    CHANNELS 3 Zrotation Xrotation Yrotation
                    JOINT LeftForeArm
                    {
                        OFFSET 22.903347 0.000000 0.000000
                        CHANNELS 3 Zrotation Xrotation Yrotation
                        JOINT LeftHand
                        {
                            OFFSET 21.865294 0.000000 0.000000
                            CHANNELS 3 Zrotation Xrotation Yrotation
                            JOINT LeftHandThumb1
                            {
                                OFFSET 1.853706 -2.106484 2.949078
                                CHANNELS 3 Zrotation Xrotation Yrotation
                                JOINT LeftHandThumb2
                                {
                                    OFFSET 2.049154 0.000000 1.336405
                                    CHANNELS 3 Zrotation Xrotation Yrotation
                                    JOINT LeftHandThumb3
                                    {
                                        OFFSET 2.672809 0.000000 0.000000
                                        CHANNELS 3 Zrotation Xrotation Yrotation
                                        End Site
                                        {
                                            OFFSET 2.381303 0.000000 0.000000
                                        }
                                    }
                                }
                            }
                            JOINT LeftHandIndex1
                            {
                                OFFSET 7.583345 0.000000 2.949078
                                CHANNELS 3 Zrotation Xrotation Yrotation
                                JOINT LeftHandIndex2
                                {
                                    OFFSET 4.454682 0.000000 0.000000
                                    CHANNELS 3 Zrotation Xrotation Yrotation
                                    JOINT LeftHandIndex3
                                    {
                                        OFFSET 2.227341 0.000000 0.000000
                                        CHANNELS 3 Zrotation Xrotation Yrotation
                                        End Site
                                        {
                                            OFFSET 1.984419 0.000000 0.000000
                                        }
                                    }
                                }
                            }
                            JOINT LeftHandMiddle1
                            {
                                OFFSET 7.583345 0.000000 0.977409
                                CHANNELS 3 Zrotation Xrotation Yrotation
                                JOINT LeftHandMiddle2
                                {
                                    OFFSET 4.900151 0.000000 0.000000
                                    CHANNELS 3 Zrotation Xrotation Yrotation
                                    JOINT LeftHandMiddle3
                                    {
                                        OFFSET 2.672809 0.000000 0.000000
                                        CHANNELS 3 Zrotation Xrotation Yrotation
                                        End Site
                                        {
                                            OFFSET 2.381303 0.000000 0.000000
                                        }
                                    }
                                }
                            }
                            JOINT LeftHandRing1
                            {
                                OFFSET 7.162047 0.000000 -0.977409
                                CHANNELS 3 Zrotation Xrotation Yrotation
                                JOINT LeftHandRing2
                                {
                                    OFFSET 4.454682 0.000000 0.000000
                                    CHANNELS 3 Zrotation Xrotation Yrotation
                                    JOINT LeftHandRing3
                                    {
                                        OFFSET 2.227341 0.000000 0.000000
                                        CHANNELS 3 Zrotation Xrotation Yrotation
                                        End Site
                                        {
                                            OFFSET 1.984419 0.000000 0.000000
                                        }
                                    }
                                }
                            }
                            JOINT LeftHandPinky1
                            {
                                OFFSET 6.740750 0.000000 -2.949078
                                CHANNELS 3 Zrotation Xrotation Yrotation
                                JOINT LeftHandPinky2
                                {
                                    OFFSET 3.563746 0.000000 0.000000
                                    CHANNELS 3 Zrotation Xrotation Yrotation
                                    JOINT LeftHandPinky3
                                    {
                                        OFFSET 1.781873 0.000000 0.000000
                                        CHANNELS 3 Zrotation Xrotation Yrotation
                                        End Site
                                        {
                                            OFFSET 1.587536 0.000000 0.000000
                                        }
                                    }
                                }
                            }
                        }
                    }
                }
            }
            JOINT RightShoulder
            {
                OFFSET -3.506995 17.989975 0.023592
                CHANNELS 3 Zrotation Xrotation Yrotation
                JOINT RightArm
                {
                    OFFSET -12.560995 0.000000 0.000000
                    CHANNELS 3 Zrotation Xrotation Yrotation
                    JOINT RightForeArm
                    {
                        OFFSET -22.903347 0.000000 0.000000
                        CHANNELS 3 Zrotation Xrotation Yrotation
                        JOINT RightHand
                        {
                            OFFSET -21.865294 0.000000 0.000000
                            CHANNELS 3 Zrotation Xrotation Yrotation
                            JOINT RightHandThumb1
                            {
                                OFFSET -1.853706 -2.106484 2.949078
                                CHANNELS 3 Zrotation Xrotation Yrotation
                                JOINT RightHandThumb2
                                {
                                    OFFSET -2.049154 0.000000 1.336405
                                    CHANNELS 3 Zrotation Xrotation Yrotation
                                    JOINT RightHandThumb3
                                    {
                                        OFFSET -2.672809 0.000000 0.000000
                                        CHANNELS 3 Zrotation Xrotation Yrotation
                                        End Site
                                        {
                                            OFFSET -2.381303 0.000000 0.000000
                                        }
                                    }
                                }
                            }
                            JOINT RightHandIndex1
                            {
                                OFFSET -7.583345 0.000000 2.949078
                                CHANNELS 3 Zrotation Xrotation Yrotation
                                JOINT RightHandIndex2
                                {
                                    OFFSET -4.454682 0.000000 0.000000
                                    CHANNELS 3 Zrotation Xrotation Yrotation
                                    JOINT RightHandIndex3
                                    {
                                        OFFSET -2.227341 0.000000 0.000000
                                        CHANNELS 3 Zrotation Xrotation Yrotation
                                        End Site
                                        {
                                            OFFSET -1.984419 0.000000 0.000000
                                        }
                                    }
                                }
                            }
                            JOINT RightHandMiddle1
                            {
                                OFFSET -7.583345 0.000000 0.977409
                                CHANNELS 3 Zrotation Xrotation Yrotation
                                JOINT RightHandMiddle2
                                {
                                    OFFSET -4.900151 0.000000 0.000000
                                    CHANNELS 3 Zrotation Xrotation Yrotation
                                    JOINT RightHandMiddle3
                                    {
                                        OFFSET -2.672809 0.000000 0.000000
                                        CHANNELS 3 Zrotation Xrotation Yrotation
                                        End Site
                                        {
                                            OFFSET -2.381303 0.000000 0.000000
                                        }
                                    }
                                }
                            }
                            JOINT RightHandRing1
                            {
                                OFFSET -7.162047 0.000000 -0.977409
                                CHANNELS 3 Zrotation Xrotation Yrotation
                                JOINT RightHandRing2
                                {
                                    OFFSET -4.454682 0.000000 0.000000
                                    CHANNELS 3 Zrotation Xrotation Yrotation
                                    JOINT RightHandRing3
                                    {
                                        OFFSET -2.227341 0.000000 0.000000
                                        CHANNELS 3 Zrotation Xrotation Yrotation
                                        End Site
                                        {
                                            OFFSET -1.984419 0.000000 0.000000
                                        }
                                    }
                                }
                            }
                            JOINT RightHandPinky1
                            {
                                OFFSET -6.740750 0.000000 -2.949078
                                CHANNELS 3 Zrotation Xrotation Yrotation
                                JOINT RightHandPinky2
                                {
                                    OFFSET -3.563746 0.000000 0.000000
                                    CHANNELS 3 Zrotation Xrotation Yrotation
                                    JOINT RightHandPinky3
                                    {
                                        OFFSET -1.781873 0.000000 0.000000
                                        CHANNELS 3 Zrotation Xrotation Yrotation
                                        End Site
                                        {
                                            OFFSET -1.587536 0.000000 0.000000
                                        }
                                    }
                                }
                            }
                        }
                    }
                }
            }
        }
    }
    JOINT LeftUpLeg
    {
        OFFSET 8.909365 0.000000 0.000000
        CHANNELS 3 Zrotation Xrotation Yrotation
        JOINT LeftLeg
        {
            OFFSET -0.000000 -38.765560 0.000000
            CHANNELS 3 Zrotation Xrotation Yrotation
            JOINT LeftFoot
            {
                OFFSET -0.000000 -35.244961 0.000000
                CHANNELS 3 Zrotation Xrotation Yrotation
                JOINT LeftToeBase
                {
                    OFFSET -0.000000 -5.791087 13.364048
                    CHANNELS 3 Zrotation Xrotation Yrotation
                    End Site
                    {
                        OFFSET -0.000000 0.000000 3.563746
                    }
                }
            }
        }
    }
    JOINT RightUpLeg
    {
        OFFSET -8.909365 0.000000 0.000000
        CHANNELS 3 Zrotation Xrotation Yrotation
        JOINT RightLeg
        {
            OFFSET -0.000000 -38.765560 0.000000
            CHANNELS 3 Zrotation Xrotation Yrotation
            JOINT RightFoot
            {
                OFFSET -0.000000 -35.244961 0.000000
                CHANNELS 3 Zrotation Xrotation Yrotation
                JOINT RightToeBase
                {
                    OFFSET -0.000000 -5.791087 13.364048
                    CHANNELS 3 Zrotation Xrotation Yrotation
                    End Site
                    {
                        OFFSET -0.000000 0.000000 3.563746
                    }
                }
            }
        }
    }
}
MOTION
Frames:    4
Frame Time:    0.033333
-11.186659    78.113518    90.038010    -11.153543    -5.838730    14.084023    -2.276275    3.582666    8.427756    21.414547    8.731134    1.130050    8.040106    19.495640    -14.634528    9.276801    -22.617952    -11.974796    10.027558    5.227801    -4.693558    -88.846626    11.736673    -4.319634    77.456070    -20.425407    -38.452850    33.263618    -11.802432    24.162340    -4.644624    2.590417    -2.773898    0.000000    0.000000    0.000000    0.000000    0.000000    0.000000    3.574064    -0.074455    -1.191870    0.000000    0.000000    0.000000    0.000000    0.000000    0.000000    -4.634324    -0.551252    1.616876    -14.093898    0.000000    0.000000    -7.046948    0.000000    0.000000    -12.811296    -1.423500    4.329368    -28.187790    0.000000    0.000000    -14.093897    0.000000    0.000000    -21.189083    -2.715095    6.966732    -42.708771    0.000000    0.000000    -21.354385    0.000000    0.000000    5.036018    -2.767979    -1.538981    61.972782    29.241791    -0.235227    -28.201748    8.468319    21.796556    9.824642    -34.963173    17.021549    8.188373    3.213761    -0.011054    0.000000    0.000000    -2.150296    0.000000    0.000000    -4.300592    -5.340041    -0.426702    4.555359    0.000000    0.000000    0.000000    0.000000    0.000000    0.000000    1.271485    -1.488145    -6.329947    10.124113    0.000000    -0.000000    5.062058    0.000000    -0.000000    7.572802    -3.770203    -17.036457    20.248232    0.000000    -0.000000    10.124117    0.000000    -0.000000    13.534173    -7.288435    -27.791172    30.679138    0.000000    -0.000000    15.339568    0.000000    -0.000000    32.647884    -13.541967    -0.390356    4.758900    26.328398    17.044725    -28.518562    2.853478    -27.340750    0.828525    -2.524453    -2.473998    -19.090057    2.010940    -5.289500    -0.963950    26.758318    -4.470224    25.368111    8.099159    18.983288    -0.323988    -4.102077    0.089495    
-10.542508    78.465195    90.538994    -10.886184    -7.713310    13.796098    -0.495550    2.690580    9.847222    20.636650    11.568172    1.165179    7.286317    20.329596    -15.688639    11.132781    -23.322159    -13.018116    10.016569    4.847137    -5.436840    -88.892883    14.732328    -4.319926    75.445320    -19.935623    -38.000969    33.282524    -11.572734    23.774614    -4.664660    2.516982    -2.895596    0.000000    0.000000    0.000000    0.000000    0.000000    0.000000    3.981106    -0.085334    -1.225953    0.000000    0.000000    0.000000    0.000000    0.000000    0.000000    -4.259385    -0.560686    1.678611    -13.891938    0.000000    0.000000    -6.945969    0.000000    0.000000    -12.467072    -1.446704    4.485688    -27.783880    0.000000    0.000000    -13.891937    0.000000    0.000000    -20.873814    -2.767791    7.216847    -42.096786    0.000000    0.000000    -21.048389    0.000000    0.000000    5.616522    -3.880228    0.659332    66.452354    29.518448    0.894825    -26.901739    -2.950969    18.285513    12.382137    -39.532074    22.962507    8.875890    4.229829    -1.481583    0.000000    0.000000    -4.169219    0.000000    0.000000    -8.338437    -9.169709    -0.793957    4.906328    0.000000    0.000000    0.000000    0.000000    0.000000    0.000000    -1.486093    -1.382102    -5.803228    9.754975    0.000000    -0.000000    4.877489    0.000000    -0.000000    5.962143    -3.378918    -16.349051    19.509949    0.000000    -0.000000    9.754977    0.000000    -0.000000    13.150989    -6.806236    -26.895489    29.560530    0.000000    -0.000000    14.780265    0.000000    -0.000000    32.685169    -10.387132    0.522401    4.688187    24.440928    18.444010    -27.962587    4.588132    -29.628408    0.815188    -2.781831    -2.484867    -19.272261    4.432304    -5.441015    -1.042061    25.419338    -4.235415    26.387112    8.707150    21.159779    -0.347423    -3.928719    0.146372    
-9.987250    78.321602    90.705124    -9.338761    -9.384940    14.902488    1.380516    2.759005    9.840707    17.633207    14.438976    1.040157    7.282774    20.049400    -16.506058    13.139394    -23.807474    -13.646372    10.028386    4.097205    -6.524735    -88.063705    16.160589    -4.021949    73.727303    -18.808050    -37.305870    33.337555    -11.410455    23.602615    -4.809494    2.422715    -3.212143    0.000000    0.000000    0.000000    0.000000    0.000000    0.000000    4.464378    -0.113109    -1.448387    0.000000    0.000000    0.000000    0.000000    0.000000    0.000000    -3.762708    -0.603913    1.798781    -13.553817    0.000000    0.000000    -6.776909    0.000000    0.000000    -11.950910    -1.553360    4.943107    -27.107634    0.000000    0.000000    -13.553817    0.000000    0.000000    -20.326841    -2.987976    8.009690    -41.072170    0.000000    0.000000    -20.536085    0.000000    0.000000    5.026624    -3.977317    3.590743    70.866325    36.923100    1.866105    -30.694845    -15.840447    18.292397    19.929167    -49.886234    34.360386    8.681285    5.139904    -3.392905    0.000000    0.000000    -6.904992    0.000000    0.000000    -13.809983    -12.882822    -1.155602    5.039208    0.000000    0.000000    0.000000    0.000000    0.000000    0.000000    -2.372455    -1.698032    -4.602531    12.985345    0.000000    -0.000000    6.492673    0.000000    -0.000000    7.912564    -3.975007    -13.996281    25.970690    0.000000    -0.000000    12.985345    0.000000    -0.000000    18.034298    -7.999402    -23.143221    39.349525    0.000000    -0.000000    19.674763    0.000000    -0.000000    31.729254    -8.967734    1.741676    4.510005    24.141365    18.557148    -27.630997    5.606683    -32.418583    0.787773    -2.999518    -2.451967    -20.349277    6.866004    -5.265659    -1.440899    24.881313    -3.249929    27.296061    8.343770    22.300669    -0.362058    -3.778630    0.186260    
-9.806952    77.738441    90.485870    -6.983063    -10.281322    16.378059    2.145765    3.487191    9.787736    14.482446    16.368328    1.189982    7.234854    18.707027    -17.125122    15.537244    -23.969807    -14.140217    9.906936    3.184298    -7.939091    -87.024940    17.276842    -4.033570    71.703362    -17.057993    -35.975170    33.449379    -11.432037    23.712574    -5.084101    2.372751    -3.648252    0.000000    0.000000    0.000000    0.000000    0.000000    0.000000    5.178977    -0.192657    -2.124604    0.000000    0.000000    0.000000    0.000000    0.000000    0.000000    -3.124260    -0.751624    2.095689    -13.260941    0.000000    0.000000    -6.630467    0.000000    0.000000    -11.367011    -1.912257    6.192583    -26.521875    0.000000    0.000000    -13.260935    0.000000    0.000000    -19.761459    -3.706145    10.199662    -40.184654    0.000000    0.000000    -20.092325    0.000000    0.000000    4.236626    -3.953275    6.626618    74.055016    43.214127    2.792358    -38.450954    -26.667881    20.369110    38.463417    -60.253403    56.888378    8.176933    5.723635    -4.858857    0.000000    0.000000    -9.172599    0.000000    0.000000    -18.345198    -15.778842    -1.603092    5.654038    0.000000    0.000000    0.000000    0.000000    0.000000    0.000000    -0.942636    -2.202743    -2.317616    19.660601    0.000000    -0.000000    9.830298    0.000000    -0.000000    13.695005    -4.812259    -9.884060    39.321201    0.000000    -0.000000    19.660597    0.000000    -0.000000    28.401381    -9.385156    -16.781996    59.577579    0.000000    -0.000000    29.788788    0.000000    -0.000000    30.196703    -9.190372    2.523726    4.049225    25.441271    18.411379    -27.674255    5.898077    -34.773907    0.766683    -3.201617    -2.432694    -21.721640    7.857563    -4.449795    -2.086236    26.159285    -2.201685    27.717012    6.836894    22.337349    -0.371974    -3.789057    0.201248    
